<svg width="46" height="25" xmlns="http://www.w3.org/2000/svg"><path d="M23.89 24.602L45.059 2.258a1.39 1.39 0 0 0 0-1.897 1.222 1.222 0 0 0-1.796 0L22.997 21.753 2.73.361a1.222 1.222 0 0 0-1.796 0 1.389 1.389 0 0 0-.376.945c0 .338.122.684.376.942l21.169 22.346a1.217 1.217 0 0 0 1.787.008z" fill="#000" fill-rule="evenodd" fill-opacity=".9"/></svg<svg width="46" height="25" xmlns="http://www.w3.org/2000/svg"><path d="M23.89 24.602L45.059 2.258a1.39 1.39 0 0 0 0-1.897 1.222 1.222 0 0 0-1.796 0L22.997 21.753 2.73.361a1.222 1.222 0 0 0-1.796 0 1.389 1.389 0 0 0-.376.945c0 .338.122.684.376.942l21.169 22.346a1.217 1.217 0 0 0 1.787.008z" fill="#000" fill-rule="evenodd" fill-opacity=".9"/></svg>