<svg width="21" height="20" xmlns="http://www.w3.org/2000/svg"><path d="M17.248.112a.41.41 0 0 0-.58 0l-5.923 5.922a.41.41 0 0 1-.58 0L4.242.112a.41.41 0 0 0-.58 0L.615 3.159a.412.412 0 0 0 0 .581l5.922 5.922a.413.413 0 0 1 0 .581L.615 16.165a.412.412 0 0 0 0 .581l3.047 3.047c.16.159.421.159.58 0l5.923-5.923a.412.412 0 0 1 .58 0l5.923 5.923c.159.159.42.159.58 0l3.048-3.047a.413.413 0 0 0 0-.581l-5.923-5.922a.413.413 0 0 1 0-.581l5.923-5.922a.413.413 0 0 0 0-.581L17.248.112z" fill="#000" fill-rule="evenodd"/></svg>