<svg width="19" height="19" xmlns="http://www.w3.org/2000/svg"><path d="M10.772 12.907l-.803.35 1.045-5.301a.763.763 0 0 0-1.123-.813l-1.935 1.09a.762.762 0 1 0 .749 1.329l.492-.277-1.006 5.106a.763.763 0 0 0 1.053.846l2.137-.931a.763.763 0 0 0-.609-1.399zm-.507-7.187a1.092 1.092 0 0 0 1.09-1.089c0-.288-.118-.57-.32-.769a1.099 1.099 0 0 0-.77-.321 1.087 1.087 0 1 0 0 2.179zM9.5 0C4.262 0 0 4.261 0 9.499s4.262 9.5 9.5 9.5 9.5-4.262 9.5-9.5S14.738 0 9.5 0zm0 17.256c-4.277 0-7.757-3.48-7.757-7.757 0-4.277 3.48-7.757 7.757-7.757 4.277 0 7.757 3.48 7.757 7.757 0 4.277-3.48 7.757-7.757 7.757z" fill="#000" fill-rule="evenodd"/></svg>