<svg width="52" height="34" xmlns="http://www.w3.org/2000/svg"><path d="M46.7 33.998H5.296c-2.921 0-5.297-2.404-5.297-5.356V1.046c0-.578.463-1.048 1.035-1.048h49.929c.572 0 1.035.47 1.035 1.048v27.596c0 2.952-2.376 5.356-5.298 5.356zm3.227-31.905H3.845L25.999 20.43 43.351 6.099a1.027 1.027 0 0 1 1.457.149 1.056 1.056 0 0 1-.146 1.474L26.654 22.596a1.043 1.043 0 0 1-.656.235c-.232 0-.465-.08-.656-.236L2.07 3.331v25.311c0 1.798 1.447 3.262 3.226 3.262H46.7c1.779 0 3.227-1.464 3.227-3.262V2.093zm-2.66 3.476a1.031 1.031 0 0 1-1.458-.147 1.057 1.057 0 0 1 .148-1.474l.31-.258a1.029 1.029 0 0 1 1.458.15 1.056 1.056 0 0 1-.147 1.474l-.311.255z" fill="#000" fill-rule="evenodd"/></svg>