<svg width="54" height="54" xmlns="http://www.w3.org/2000/svg"><path d="M50.907 18.852a.896.896 0 0 1-1.272 0 .898.898 0 0 1 0-1.272c3.36-3.363 3.36-8.835 0-12.197a.898.898 0 0 1 0-1.272.896.896 0 0 1 1.272 0c4.062 4.064 4.062 10.678 0 14.741zm-3.788-1.799a.895.895 0 0 1-1.272 0 .898.898 0 0 1 0-1.272 5.865 5.865 0 0 0 1.725-4.175 5.865 5.865 0 0 0-1.725-4.175.897.897 0 0 1 0-1.271.896.896 0 0 1 1.272 0 7.646 7.646 0 0 1 2.253 5.446c0 2.059-.8 3.994-2.253 5.447zm-8.822 36.945H15.639a3.969 3.969 0 0 1-3.962-3.965V3.963a3.97 3.97 0 0 1 3.962-3.965h22.659a3.97 3.97 0 0 1 3.963 3.965v46.071a3.97 3.97 0 0 1-3.964 3.964zm2.164-50.035c0-1.194-.97-2.164-2.164-2.164H15.639c-1.192 0-2.163.97-2.163 2.164v1.435h26.985V3.963zm0 3.236H13.476v34.2h26.985v-34.2zm0 36H13.476v6.835c0 1.194.971 2.164 2.163 2.164h22.659c1.193 0 2.163-.97 2.163-2.164v-6.835zm-13.492 8.1a3.603 3.603 0 0 1-3.598-3.601 3.602 3.602 0 0 1 3.598-3.599 3.602 3.602 0 0 1 3.598 3.599 3.603 3.603 0 0 1-3.598 3.601zm0-5.401a1.801 1.801 0 0 0 0 3.6 1.801 1.801 0 0 0 0-3.6zm-3.598-43.2h3.598a.9.9 0 1 1 0 1.801h-3.598a.9.9 0 1 1 0-1.801zm6.296 0h.9a.9.9 0 1 1 0 1.801h-.9a.9.9 0 0 1 0-1.801zM8.091 16.805a.9.9 0 0 1-1.272 0 7.653 7.653 0 0 1-2.253-5.448c0-2.06.8-3.994 2.253-5.446a.896.896 0 0 1 1.272 0 .901.901 0 0 1 0 1.273 5.858 5.858 0 0 0-1.726 4.173c0 1.579.613 3.063 1.726 4.176a.9.9 0 0 1 0 1.272zm-3.788.775a.9.9 0 0 1-1.272 1.272c-4.062-4.064-4.062-10.677 0-14.741a.9.9 0 0 1 1.272 1.272c-3.361 3.363-3.361 8.834 0 12.197z" fill="#000" fill-rule="evenodd"/></svg>